<svg width="417" height="130" viewBox="0 0 417 130" fill="none" xmlns="http://www.w3.org/2000/svg">
<rect width="417" height="130" fill="#990764"/>
<path d="M201.25 100C200.417 100 200 99.5833 200 98.75V46.65H191.25C190.417 46.65 190 46.2333 190 45.4V34.6C190 33.7667 190.417 33.35 191.25 33.35H225.4C226.233 33.35 226.65 33.7667 226.65 34.6V45.4C226.65 46.2333 226.233 46.65 225.4 46.65H216.65V98.75C216.65 99.5833 216.233 100 215.4 100H201.25ZM251.483 100C250.683 100 250.016 99.7167 249.483 99.15L239.483 89.15C238.916 88.6167 238.633 87.95 238.633 87.15V34.6C238.633 33.7667 239.049 33.35 239.883 33.35H254.033C254.866 33.35 255.283 33.7667 255.283 34.6V85.65C255.283 86.3167 255.616 86.65 256.283 86.65H264.483V34.6C264.483 33.7667 264.899 33.35 265.733 33.35H279.883C280.716 33.35 281.133 33.7667 281.133 34.6V98.75C281.133 99.5833 280.716 100 279.883 100H251.483ZM294.625 100C293.792 100 293.375 99.5833 293.375 98.75V34.6C293.375 33.7667 293.792 33.35 294.625 33.35H324.725C325.492 33.35 326.158 33.6167 326.725 34.15L336.725 44.15C337.258 44.7167 337.525 45.3833 337.525 46.15V56.65C337.525 56.9833 337.458 57.25 337.325 57.45C337.192 57.65 336.992 57.8833 336.725 58.15L328.875 65.15L328.125 67L328.875 68.35L336.725 75.35C336.992 75.6167 337.192 75.85 337.325 76.05C337.458 76.2167 337.525 76.4833 337.525 76.85V87.15C337.525 87.95 337.258 88.6167 336.725 89.15L326.725 99.15C326.158 99.7167 325.492 100 324.725 100H294.625ZM314.525 88.75C317.292 88.75 319.175 88.2 320.175 87.1C321.208 86 321.725 83.9167 321.725 80.85C321.725 77.75 321.208 75.65 320.175 74.55C319.175 73.45 317.292 72.9 314.525 72.9C311.792 72.9 309.908 73.45 308.875 74.55C307.875 75.65 307.375 77.75 307.375 80.85C307.375 83.9167 307.875 86 308.875 87.1C309.908 88.2 311.792 88.75 314.525 88.75ZM314.525 60.4C317.292 60.4 319.175 59.85 320.175 58.75C321.208 57.65 321.725 55.5667 321.725 52.5C321.725 49.4333 321.208 47.35 320.175 46.25C319.175 45.15 317.292 44.6 314.525 44.6C311.792 44.6 309.908 45.15 308.875 46.25C307.875 47.35 307.375 49.4333 307.375 52.5C307.375 55.5667 307.875 57.65 308.875 58.75C309.908 59.85 311.792 60.4 314.525 60.4ZM351.016 100C350.182 100 349.766 99.5833 349.766 98.75V34.6C349.766 33.7667 350.182 33.35 351.016 33.35H385.866C386.699 33.35 387.116 33.7667 387.116 34.6V45.4C387.116 46.2333 386.699 46.65 385.866 46.65H366.416V60.85H384.166C384.999 60.85 385.416 61.2667 385.416 62.1V71.25C385.416 72.0833 384.999 72.5 384.166 72.5H366.416V86.65H385.866C386.699 86.65 387.116 87.0667 387.116 87.9V98.75C387.116 99.5833 386.699 100 385.866 100H351.016Z" fill="#FF2C80"/>
<path d="M33 38.4286H38.3571V43.7857H33V38.4286ZM38.3571 38.4286H43.7143V43.7857H38.3571V38.4286ZM38.3571 43.7857H43.7143V49.1429H38.3571V43.7857ZM38.3571 49.1429H43.7143V54.5H38.3571V49.1429ZM38.3571 54.5H43.7143V59.8571H38.3571V54.5ZM33 54.5H38.3571V59.8571H33V54.5ZM33 49.1429H38.3571V54.5H33V49.1429ZM33 43.7857H38.3571V49.1429H33V43.7857ZM33 59.8571H38.3571V65.2143H33V59.8571ZM33 65.2143H38.3571V70.5714H33V65.2143ZM33 70.5714H38.3571V75.9286H33V70.5714ZM38.3571 65.2143H43.7143V70.5714H38.3571V65.2143ZM38.3571 59.8571H43.7143V65.2143H38.3571V59.8571ZM38.3571 70.5714H43.7143V75.9286H38.3571V70.5714ZM38.3571 75.9286H43.7143V81.2857H38.3571V75.9286ZM33 81.2857H38.3571V86.6429H33V81.2857ZM33 75.9286H38.3571V81.2857H33V75.9286ZM33 86.6429H38.3571V92H33V86.6429ZM38.3571 86.6429H43.7143V92H38.3571V86.6429ZM38.3571 81.2857H43.7143V86.6429H38.3571V81.2857ZM43.7143 86.6429H49.0714V92H43.7143V86.6429ZM49.0714 86.6429H54.4286V92H49.0714V86.6429ZM54.4286 86.6429H59.7857V92H54.4286V86.6429ZM54.4286 81.2857H59.7857V86.6429H54.4286V81.2857ZM49.0714 81.2857H54.4286V86.6429H49.0714V81.2857ZM43.7143 81.2857H49.0714V86.6429H43.7143V81.2857ZM75.8432 49.1429H81.2003V54.5H75.8432V49.1429ZM70.486 49.1429H75.8432V54.5H70.486V49.1429ZM70.486 54.5H75.8432V59.8571H70.486V54.5ZM75.8432 54.5H81.2003V59.8571H75.8432V54.5ZM81.2003 49.1429H86.5575V54.5H81.2003V49.1429ZM86.5575 49.1429H91.9146V54.5H86.5575V49.1429ZM91.9146 49.1429H97.2718V54.5H91.9146V49.1429ZM91.9146 54.5H97.2718V59.8571H91.9146V54.5ZM86.5575 54.5H91.9146V59.8571H86.5575V54.5ZM97.2718 54.5H102.629V59.8571H97.2718V54.5ZM97.2718 59.8571H102.629V65.2143H97.2718V59.8571ZM97.2718 81.2857H102.629V86.6429H97.2718V81.2857ZM91.9146 81.2857H97.2718V86.6429H91.9146V81.2857ZM91.9146 59.8571H97.2718V65.2143H91.9146V59.8571ZM86.5575 81.2857H91.9146V86.6429H86.5575V81.2857ZM91.9146 86.6429H97.2718V92H91.9146V86.6429ZM86.5575 86.6429H91.9146V92H86.5575V86.6429ZM81.2003 86.6429H86.5575V92H81.2003V86.6429ZM75.8432 86.6429H81.2003V92H75.8432V86.6429ZM70.486 86.6429H75.8432V92H70.486V86.6429ZM70.486 81.2857H75.8432V86.6429H70.486V81.2857ZM75.8432 81.2857H81.2003V86.6429H75.8432V81.2857ZM70.486 75.9286H75.8432V81.2857H70.486V75.9286ZM65.1289 81.2857H70.486V86.6429H65.1289V81.2857ZM65.1289 75.9286H70.486V81.2857H65.1289V75.9286ZM65.1289 70.5714H70.486V75.9286H65.1289V70.5714ZM65.1289 65.2143H70.486V70.5714H65.1289V65.2143ZM65.1289 59.8571H70.486V65.2143H65.1289V59.8571ZM65.1289 54.5H70.486V59.8571H65.1289V54.5ZM70.486 59.8571H75.8432V65.2143H70.486V59.8571ZM70.486 65.2143H75.8432V70.5714H70.486V65.2143ZM70.486 70.5714H75.8432V75.9286H70.486V70.5714ZM81.2003 81.2857H86.5575V86.6429H81.2003V81.2857ZM81.2003 54.5H86.5575V59.8571H81.2003V54.5ZM91.9146 65.2143H97.2718V70.5714H91.9146V65.2143ZM97.2718 65.2143H102.629V70.5714H97.2718V65.2143ZM75.8432 70.5714H81.2003V75.9286H75.8432V70.5714ZM81.2003 70.5714H86.5575V75.9286H81.2003V70.5714ZM86.5575 70.5714H91.9146V75.9286H86.5575V70.5714ZM91.9146 70.5714H97.2718V75.9286H91.9146V70.5714ZM97.2718 70.5714H102.629V75.9286H97.2718V70.5714ZM86.5575 65.2143H91.9146V70.5714H86.5575V65.2143ZM81.2003 65.2143H86.5575V70.5714H81.2003V65.2143ZM75.8432 65.2143H81.2003V70.5714H75.8432V65.2143ZM140.143 92H134.786V86.6429H140.143V92ZM140.143 86.6429H134.786V81.2857H140.143V86.6429ZM134.786 86.6429H129.429V81.2857H134.786V86.6429ZM129.429 92H124.071V86.6429H129.429V92ZM124.071 92H118.714V86.6429H124.071V92ZM118.714 92H113.357V86.6429H118.714V92ZM118.714 86.6429H113.357V81.2857H118.714V86.6429ZM124.071 86.6429H118.714V81.2857H124.071V86.6429ZM113.357 86.6429H108V81.2857H113.357V86.6429ZM113.357 81.2857H108V75.9286H113.357V81.2857ZM113.357 59.8571H108V54.5H113.357V59.8571ZM118.714 59.8571H113.357V54.5H118.714V59.8571ZM118.714 81.2857H113.357V75.9286H118.714V81.2857ZM124.071 59.8571H118.714V54.5H124.071V59.8571ZM118.714 54.5H113.357V49.1429H118.714V54.5ZM124.071 54.5H118.714V49.1429H124.071V54.5ZM129.429 54.5H124.071V49.1429H129.429V54.5ZM134.786 54.5H129.429V49.1429H134.786V54.5ZM140.143 54.5H134.786V49.1429H140.143V54.5ZM140.143 59.8571H134.786V54.5H140.143V59.8571ZM134.786 59.8571H129.429V54.5H134.786V59.8571ZM140.143 65.2143H134.786V59.8571H140.143V65.2143ZM145.5 59.8571H140.143V54.5H145.5V59.8571ZM145.5 65.2143H140.143V59.8571H145.5V65.2143ZM145.5 70.5714H140.143V65.2143H145.5V70.5714ZM145.5 75.9286H140.143V70.5714H145.5V75.9286ZM145.5 81.2857H140.143V75.9286H145.5V81.2857ZM145.5 86.6429H140.143V81.2857H145.5V86.6429ZM140.143 81.2857H134.786V75.9286H140.143V81.2857ZM140.143 75.9286H134.786V70.5714H140.143V75.9286ZM140.143 70.5714H134.786V65.2143H140.143V70.5714ZM129.429 59.8571H124.071V54.5H129.429V59.8571ZM129.429 86.6429H124.071V81.2857H129.429V86.6429ZM140.143 86.6429H145.5V92H140.143V86.6429ZM129.429 65.2143H134.786V70.5714H129.429V65.2143ZM124.071 65.2143H129.429V70.5714H124.071V65.2143ZM118.714 65.2143H124.071V70.5714H118.714V65.2143ZM113.357 65.2143H118.714V70.5714H113.357V65.2143ZM108 70.5714H113.357V75.9286H108V70.5714ZM113.357 70.5714H118.714V75.9286H113.357V70.5714ZM129.429 70.5714H134.786V75.9286H129.429V70.5714ZM124.071 70.5714H129.429V75.9286H124.071V70.5714ZM118.714 70.5714H124.071V75.9286H118.714V70.5714ZM150.871 38.4286H156.228V43.7857H150.871V38.4286ZM156.228 38.4286H161.585V43.7857H156.228V38.4286ZM156.228 43.7857H161.585V49.1429H156.228V43.7857ZM156.228 49.1429H161.585V54.5H156.228V49.1429ZM156.228 54.5H161.585V59.8571H156.228V54.5ZM150.871 54.5H156.228V59.8571H150.871V54.5ZM150.871 49.1429H156.228V54.5H150.871V49.1429ZM150.871 43.7857H156.228V49.1429H150.871V43.7857ZM150.871 59.8571H156.228V65.2143H150.871V59.8571ZM150.871 65.2143H156.228V70.5714H150.871V65.2143ZM150.871 70.5714H156.228V75.9286H150.871V70.5714ZM150.871 75.9286H156.228V81.2857H150.871V75.9286ZM150.871 81.2857H156.228V86.6429H150.871V81.2857ZM150.871 86.6429H156.228V92H150.871V86.6429ZM156.228 86.6429H161.585V92H156.228V86.6429ZM156.228 81.2857H161.585V86.6429H156.228V81.2857ZM156.228 75.9286H161.585V81.2857H156.228V75.9286ZM156.228 70.5714H161.585V75.9286H156.228V70.5714ZM156.228 65.2143H161.585V70.5714H156.228V65.2143ZM156.228 59.8571H161.585V65.2143H156.228V59.8571ZM161.585 65.2143H166.943V70.5714H161.585V65.2143ZM166.943 65.2143H172.3V70.5714H166.943V65.2143ZM166.943 59.8571H172.3V65.2143H166.943V59.8571ZM172.3 59.8571H177.657V65.2143H172.3V59.8571ZM172.3 54.5H177.657V59.8571H172.3V54.5ZM172.3 49.1429H177.657V54.5H172.3V49.1429ZM177.657 49.1429H183.014V54.5H177.657V49.1429ZM177.657 54.5H183.014V59.8571H177.657V54.5ZM166.943 70.5714H172.3V75.9286H166.943V70.5714ZM172.3 70.5714H177.657V75.9286H172.3V70.5714ZM177.657 75.9286H183.014V81.2857H177.657V75.9286ZM172.3 75.9286H177.657V81.2857H172.3V75.9286ZM172.3 81.2857H177.657V86.6429H172.3V81.2857ZM177.657 81.2857H183.014V86.6429H177.657V81.2857ZM177.657 86.6429H183.014V92H177.657V86.6429ZM172.3 86.6429H177.657V92H172.3V86.6429Z" fill="white"/>
</svg>
